# xmcd CD database file
#
# Track frame offsets:
#	150
#	20315
#	33150
#	46895
#	59172
#	73775
#	89847
#	101180
#	123730
#	143055
#	162640
#	178917
#
# Disc length: 2569 seconds
#
# Revision: 0
# Processed by: cddbd v1.5PL3 Copyright (c) Steve Scherf et al.
# Submitted via: CDex 1.51
#
DISCID=b80a070c
DTITLE=TOMEU PENYA__ELS CORS FERITS - ELS CORS FERITS
DYEAR=1988
DGENRE=Country
TTITLE0=ROCK and ROLL (ELS MILLORS ANYS)
TTITLE1=ELS CORS FERITS
TTITLE2=DEMA QUAN TE'N VAGIS
TTITLE3=SA MILLOR AMIGA QUE TENC
TTITLE4=ES TANGO DE SES PAPARRES
TTITLE5=EL DIMONI DINS JO
TTITLE6=TRE-TE ES VESTIT
TTITLE7=AINA
TTITLE8=SA ROSSA COIXA NO BOTA
TTITLE9=HAVANERA
TTITLE10=ARRELS
TTITLE11=SOLITARI
EXTD=YEAR: 1988
EXTT0=
EXTT1=
EXTT2=
EXTT3=
EXTT4=
EXTT5=
EXTT6=
EXTT7=
EXTT8=
EXTT9=
EXTT10=
EXTT11=
PLAYORDER=
